<?xml version="1.0" encoding="UTF-8" standalone="no"?>
<!DOCTYPE svg PUBLIC "-//W3C//DTD SVG 1.1//EN" "http://www.w3.org/Graphics/SVG/1.1/DTD/svg11.dtd">
<svg width="100%" height="100%" viewBox="0 0 800 800" version="1.1" xmlns="http://www.w3.org/2000/svg" xmlns:xlink="http://www.w3.org/1999/xlink" xml:space="preserve" xmlns:serif="http://www.serif.com/" style="fill-rule:evenodd;clip-rule:evenodd;stroke-linejoin:round;stroke-miterlimit:2;">
    <g id="Imagen">
        <g id="Cuerpo" transform="matrix(1.5625,0,0,1.5625,0,0)">
            <path d="M63.035,457.579C54.556,457.579 47.683,450.705 47.683,442.227L47.683,59.036C47.684,26.483 74.167,0 106.72,0L387.789,0C420.342,0 446.825,26.483 446.825,59.036L446.825,314.707C446.825,323.184 439.952,330.059 431.473,330.059C422.994,330.059 416.121,323.185 416.121,314.707L416.121,59.036C416.121,43.413 403.411,30.703 387.788,30.703L106.72,30.703C91.097,30.703 78.387,43.413 78.387,59.036L78.387,442.227C78.387,450.706 71.512,457.579 63.035,457.579Z" style="fill:rgb(45,82,124);fill-rule:nonzero;"/>
        </g>
        <g id="Cruz">
            <g id="Relleno" transform="matrix(1.5625,0,0,1.5625,0,0)">
                <path d="M327.047,148.967L276.792,148.967L276.792,103.912L219.726,103.912L219.726,148.967L169.471,148.967L169.471,206.034L219.726,206.034L219.726,308.036L276.792,308.036L276.792,206.034L327.047,206.034L327.047,148.967Z" style="fill:rgb(206,232,250);fill-rule:nonzero;"/>
            </g>
            <g id="Borde" transform="matrix(1.5625,0,0,1.5625,0,0)">
                <path d="M276.792,323.387L219.727,323.387C211.248,323.387 204.375,316.513 204.375,308.035L204.375,221.384L169.472,221.384C160.993,221.384 154.12,214.51 154.12,206.032L154.12,148.966C154.12,140.489 160.993,133.614 169.472,133.614L204.375,133.614L204.375,103.91C204.375,95.433 211.248,88.558 219.727,88.558L276.792,88.558C285.271,88.558 292.144,95.432 292.144,103.91L292.144,133.615L327.049,133.615C335.528,133.615 342.401,140.489 342.401,148.967L342.401,206.033C342.401,214.51 335.528,221.385 327.049,221.385L292.144,221.385L292.144,308.036C292.144,316.514 285.271,323.387 276.792,323.387ZM235.077,292.684L261.439,292.684L261.439,206.033C261.439,197.556 268.312,190.681 276.791,190.681L311.696,190.681L311.696,164.318L276.791,164.318C268.312,164.318 261.439,157.444 261.439,148.966L261.439,119.261L235.077,119.261L235.077,148.966C235.077,157.443 228.204,164.318 219.725,164.318L184.822,164.318L184.822,190.681L219.725,190.681C228.204,190.681 235.077,197.555 235.077,206.033L235.077,292.684Z" style="fill:rgb(45,82,124);fill-rule:nonzero;"/>
            </g>
        </g>
        <g id="Canto">
            <g id="Relleno1" serif:id="Relleno" transform="matrix(1.5625,0,0,1.5625,0,0)">
                <path d="M272.626,496.648L448.965,496.648C423.127,496.648 402.179,475.701 402.179,449.862L402.179,443.17C402.179,417.332 423.126,396.384 448.965,396.384L113.166,396.384C85.479,396.384 63.035,418.828 63.035,446.515C63.035,474.202 85.479,496.646 113.166,496.646L272.626,496.646L272.626,496.648Z" style="fill:rgb(206,232,250);fill-rule:nonzero;"/>
            </g>
            <g id="Borde1" serif:id="Borde" transform="matrix(1.5625,0,0,1.5625,0,0)">
                <path id="Cuerpo1" serif:id="Cuerpo" d="M448.965,512L113.166,512C77.059,512 47.684,482.625 47.684,446.518C47.684,410.411 77.059,381.036 113.166,381.036L448.965,381.036C457.444,381.036 464.317,387.91 464.317,396.388C464.317,404.865 457.444,411.74 448.965,411.74C431.633,411.74 417.531,425.842 417.531,443.175L417.531,449.865C417.531,467.197 431.633,481.299 448.965,481.299C457.444,481.299 464.317,488.173 464.317,496.651C464.316,505.127 457.444,512 448.965,512ZM113.166,411.737C93.989,411.737 78.387,427.339 78.387,446.516C78.387,465.693 93.989,481.295 113.166,481.295L395.38,481.295C389.947,472.069 386.828,461.321 386.828,449.861L386.828,443.171C386.828,431.708 389.946,420.963 395.38,411.736L113.166,411.736L113.166,411.737Z" style="fill:rgb(45,82,124);fill-rule:nonzero;"/>
                <path id="Separador" d="M400.747,461.868L267.211,461.868C258.732,461.868 251.859,454.994 251.859,446.516C251.859,438.039 258.732,431.164 267.211,431.164L400.747,431.164C409.226,431.164 416.099,438.038 416.099,446.516C416.099,454.993 409.226,461.868 400.747,461.868Z" style="fill:rgb(45,82,124);fill-rule:nonzero;"/>
            </g>
        </g>
    </g>
</svg>
