<?xml version="1.0" encoding="UTF-8" standalone="no"?>
<!DOCTYPE svg PUBLIC "-//W3C//DTD SVG 1.1//EN" "http://www.w3.org/Graphics/SVG/1.1/DTD/svg11.dtd">
<svg width="100%" height="100%" viewBox="0 0 1024 1024" version="1.1" xmlns="http://www.w3.org/2000/svg" xmlns:xlink="http://www.w3.org/1999/xlink" xml:space="preserve" xmlns:serif="http://www.serif.com/" style="fill-rule:evenodd;clip-rule:evenodd;stroke-linejoin:round;stroke-miterlimit:2;">
    <g id="Imagen" transform="matrix(3.389831,0,0,3.389831,78.154575,78.101695)">
        <g id="Cruz">
            <path id="Centro" d="M139.2,73.8L191.8,73.8L191.8,96.1L139.2,96.1L139.2,226.9L116.9,226.9L116.9,96.1L64.2,96.1L64.2,73.8L116.8,73.8L116.8,29.1L139.1,29.1L139.2,73.8Z" style="fill:rgb(206,232,250);fill-rule:nonzero;"/>
            <path id="Borde" d="M210.9,54.6L210.9,115.2L158.3,115.2L158.3,246L97.7,246L97.7,115.2L45.1,115.2L45.1,54.6L97.7,54.6L97.7,10L158.3,10L158.3,54.6L210.9,54.6ZM201.4,64.2L148.8,64.2L148.8,19.6L107.3,19.6L107.3,64.2L54.6,64.2L54.6,105.7L107.2,105.7L107.2,236.5L148.7,236.5L148.7,105.7L201.3,105.7L201.3,64.2L201.4,64.2Z" style="fill:rgb(45,82,124);fill-rule:nonzero;"/>
        </g>
        <g id="Manos">
            <g id="Derecha" transform="matrix(-0,0.682009,-0.682009,-0,335.541564,78.293936)">
                <path d="M234,134.3L222.8,140L222.8,187L199,210.8L198.9,193.2L198.7,175.6L187.3,181.3L175.9,187.1L175.7,216.5L175.6,245.9L222.4,245.9L234.2,222.4L245.9,198.9L245.9,163.7C245.9,144.4 245.7,128.5 245.5,128.6C245.3,128.6 240.1,131.2 234,134.3Z" style="fill:rgb(45,82,124);fill-rule:nonzero;"/>
            </g>
            <g id="Izquierda" transform="matrix(0.681431,0,0,0.681431,33.46659,78.367973)">
                <path d="M10,163.7L10,198.9L21.7,222.4L33.5,246L80.3,246L80.3,187.2L57.1,175.6L57.1,210.8L33.3,187L33.3,140L21.9,134.3C15.6,131.2 10.4,128.6 10.3,128.6C10.2,128.6 10,144.4 10,163.7Z" style="fill:rgb(45,82,124);fill-rule:nonzero;"/>
            </g>
        </g>
    </g>
</svg>
